<mxfile host="app.diagrams.net" modified="2022-07-08T07:04:18.507Z" agent="5.0 (Windows NT 10.0; Win64; x64) AppleWebKit/537.36 (KHTML, like Gecko) Chrome/102.0.0.0 Safari/537.36" etag="OpXj_a0rLuSJA_wU4OSt" version="19.0.2" type="github">
  <diagram id="8T4sd_kMJtO7qD8eSKjq" name="Page-1">
    <mxGraphModel dx="1422" dy="754" grid="1" gridSize="10" guides="1" tooltips="1" connect="1" arrows="1" fold="1" page="1" pageScale="1" pageWidth="827" pageHeight="1169" math="0" shadow="0">
      <root>
        <mxCell id="0" />
        <mxCell id="1" parent="0" />
        <mxCell id="1lB7zvpN8gyp25jh_AtW-20" style="edgeStyle=orthogonalEdgeStyle;rounded=0;orthogonalLoop=1;jettySize=auto;html=1;entryX=0;entryY=0.5;entryDx=0;entryDy=0;" edge="1" parent="1" source="1lB7zvpN8gyp25jh_AtW-1" target="1lB7zvpN8gyp25jh_AtW-2">
          <mxGeometry relative="1" as="geometry" />
        </mxCell>
        <mxCell id="1lB7zvpN8gyp25jh_AtW-1" value="前端" style="rounded=0;whiteSpace=wrap;html=1;" vertex="1" parent="1">
          <mxGeometry x="260" y="140" width="120" height="60" as="geometry" />
        </mxCell>
        <mxCell id="1lB7zvpN8gyp25jh_AtW-21" style="edgeStyle=orthogonalEdgeStyle;rounded=0;orthogonalLoop=1;jettySize=auto;html=1;" edge="1" parent="1" source="1lB7zvpN8gyp25jh_AtW-2" target="1lB7zvpN8gyp25jh_AtW-3">
          <mxGeometry relative="1" as="geometry" />
        </mxCell>
        <mxCell id="1lB7zvpN8gyp25jh_AtW-2" value="综窗接口" style="rounded=0;whiteSpace=wrap;html=1;" vertex="1" parent="1">
          <mxGeometry x="470" y="140" width="120" height="60" as="geometry" />
        </mxCell>
        <mxCell id="1lB7zvpN8gyp25jh_AtW-7" value="" style="edgeStyle=orthogonalEdgeStyle;rounded=0;orthogonalLoop=1;jettySize=auto;html=1;" edge="1" parent="1" source="1lB7zvpN8gyp25jh_AtW-3" target="1lB7zvpN8gyp25jh_AtW-6">
          <mxGeometry relative="1" as="geometry" />
        </mxCell>
        <mxCell id="1lB7zvpN8gyp25jh_AtW-3" value="统计服务" style="rounded=0;whiteSpace=wrap;html=1;" vertex="1" parent="1">
          <mxGeometry x="680" y="140" width="120" height="60" as="geometry" />
        </mxCell>
        <mxCell id="1lB7zvpN8gyp25jh_AtW-9" style="edgeStyle=orthogonalEdgeStyle;rounded=0;orthogonalLoop=1;jettySize=auto;html=1;entryX=0;entryY=0.5;entryDx=0;entryDy=0;" edge="1" parent="1" source="1lB7zvpN8gyp25jh_AtW-4" target="1lB7zvpN8gyp25jh_AtW-5">
          <mxGeometry relative="1" as="geometry" />
        </mxCell>
        <mxCell id="1lB7zvpN8gyp25jh_AtW-22" style="edgeStyle=orthogonalEdgeStyle;rounded=0;orthogonalLoop=1;jettySize=auto;html=1;exitX=0;exitY=0.5;exitDx=0;exitDy=0;entryX=1;entryY=0.5;entryDx=0;entryDy=0;" edge="1" parent="1" source="1lB7zvpN8gyp25jh_AtW-4" target="1lB7zvpN8gyp25jh_AtW-6">
          <mxGeometry relative="1" as="geometry" />
        </mxCell>
        <mxCell id="1lB7zvpN8gyp25jh_AtW-4" value="定时任务" style="rounded=0;whiteSpace=wrap;html=1;" vertex="1" parent="1">
          <mxGeometry x="1060" y="140" width="120" height="60" as="geometry" />
        </mxCell>
        <mxCell id="1lB7zvpN8gyp25jh_AtW-14" value="" style="edgeStyle=orthogonalEdgeStyle;rounded=0;orthogonalLoop=1;jettySize=auto;html=1;" edge="1" parent="1" source="1lB7zvpN8gyp25jh_AtW-5" target="1lB7zvpN8gyp25jh_AtW-13">
          <mxGeometry relative="1" as="geometry" />
        </mxCell>
        <mxCell id="1lB7zvpN8gyp25jh_AtW-16" value="" style="edgeStyle=orthogonalEdgeStyle;rounded=0;orthogonalLoop=1;jettySize=auto;html=1;" edge="1" parent="1" source="1lB7zvpN8gyp25jh_AtW-5" target="1lB7zvpN8gyp25jh_AtW-15">
          <mxGeometry relative="1" as="geometry">
            <Array as="points">
              <mxPoint x="1420" y="170" />
              <mxPoint x="1420" y="270" />
            </Array>
          </mxGeometry>
        </mxCell>
        <mxCell id="1lB7zvpN8gyp25jh_AtW-19" value="" style="edgeStyle=orthogonalEdgeStyle;rounded=0;orthogonalLoop=1;jettySize=auto;html=1;" edge="1" parent="1" source="1lB7zvpN8gyp25jh_AtW-5" target="1lB7zvpN8gyp25jh_AtW-18">
          <mxGeometry relative="1" as="geometry">
            <Array as="points">
              <mxPoint x="1420" y="170" />
              <mxPoint x="1420" y="390" />
            </Array>
          </mxGeometry>
        </mxCell>
        <mxCell id="1lB7zvpN8gyp25jh_AtW-5" value="数据源" style="rounded=0;whiteSpace=wrap;html=1;" vertex="1" parent="1">
          <mxGeometry x="1260" y="140" width="120" height="60" as="geometry" />
        </mxCell>
        <mxCell id="1lB7zvpN8gyp25jh_AtW-8" style="edgeStyle=orthogonalEdgeStyle;rounded=0;orthogonalLoop=1;jettySize=auto;html=1;entryX=0;entryY=0.5;entryDx=0;entryDy=0;" edge="1" parent="1" source="1lB7zvpN8gyp25jh_AtW-6" target="1lB7zvpN8gyp25jh_AtW-4">
          <mxGeometry relative="1" as="geometry" />
        </mxCell>
        <mxCell id="1lB7zvpN8gyp25jh_AtW-23" style="edgeStyle=orthogonalEdgeStyle;rounded=0;orthogonalLoop=1;jettySize=auto;html=1;entryX=0;entryY=0.5;entryDx=0;entryDy=0;" edge="1" parent="1" source="1lB7zvpN8gyp25jh_AtW-6" target="1lB7zvpN8gyp25jh_AtW-10">
          <mxGeometry relative="1" as="geometry">
            <Array as="points">
              <mxPoint x="960" y="40" />
            </Array>
          </mxGeometry>
        </mxCell>
        <mxCell id="1lB7zvpN8gyp25jh_AtW-6" value="统计表" style="whiteSpace=wrap;html=1;rounded=0;" vertex="1" parent="1">
          <mxGeometry x="890" y="140" width="120" height="60" as="geometry" />
        </mxCell>
        <mxCell id="1lB7zvpN8gyp25jh_AtW-10" value="办件统计sql" style="whiteSpace=wrap;html=1;rounded=0;" vertex="1" parent="1">
          <mxGeometry x="1090" y="10" width="120" height="60" as="geometry" />
        </mxCell>
        <mxCell id="1lB7zvpN8gyp25jh_AtW-13" value="&lt;span style=&quot;&quot;&gt;预约统计sql&lt;/span&gt;" style="whiteSpace=wrap;html=1;rounded=0;" vertex="1" parent="1">
          <mxGeometry x="1460" y="140" width="120" height="60" as="geometry" />
        </mxCell>
        <mxCell id="1lB7zvpN8gyp25jh_AtW-15" value="&lt;span style=&quot;&quot;&gt;叫号统计sql&lt;/span&gt;" style="whiteSpace=wrap;html=1;rounded=0;" vertex="1" parent="1">
          <mxGeometry x="1470" y="240" width="120" height="60" as="geometry" />
        </mxCell>
        <mxCell id="1lB7zvpN8gyp25jh_AtW-18" value="评价统计sql" style="whiteSpace=wrap;html=1;rounded=0;" vertex="1" parent="1">
          <mxGeometry x="1460" y="360" width="120" height="60" as="geometry" />
        </mxCell>
      </root>
    </mxGraphModel>
  </diagram>
</mxfile>
